<?xml version="1.0" encoding="utf-8"?>
<!-- Generator: Adobe Illustrator 26.0.1, SVG Export Plug-In . SVG Version: 6.00 Build 0)  -->
<!DOCTYPE svg PUBLIC "-//W3C//DTD SVG 1.1//EN" "http://www.w3.org/Graphics/SVG/1.1/DTD/svg11.dtd" [
	<!ENTITY ns_extend "http://ns.adobe.com/Extensibility/1.0/">
	<!ENTITY ns_ai "http://ns.adobe.com/AdobeIllustrator/10.0/">
	<!ENTITY ns_graphs "http://ns.adobe.com/Graphs/1.0/">
	<!ENTITY ns_vars "http://ns.adobe.com/Variables/1.0/">
	<!ENTITY ns_imrep "http://ns.adobe.com/ImageReplacement/1.0/">
	<!ENTITY ns_sfw "http://ns.adobe.com/SaveForWeb/1.0/">
	<!ENTITY ns_custom "http://ns.adobe.com/GenericCustomNamespace/1.0/">
	<!ENTITY ns_adobe_xpath "http://ns.adobe.com/XPath/1.0/">
]>
<svg version="1.1" id="圖層_1" xmlns:x="&ns_extend;" xmlns:i="&ns_ai;" xmlns:graph="&ns_graphs;"
	 xmlns="http://www.w3.org/2000/svg" xmlns:xlink="http://www.w3.org/1999/xlink" x="0px" y="0px" width="210.5px" height="213px"
	 viewBox="0 0 210.5 213" style="enable-background:new 0 0 210.5 213;" xml:space="preserve">
<style type="text/css">
	.st0{fill:#996600;}
	.st1{fill:#003366;}
</style>
<metadata>
	<sfw  xmlns="&ns_sfw;">
		<slices></slices>
		<sliceSourceBounds  bottomLeftOrigin="true" height="213" width="210.5" x="58.2" y="-512.6"></sliceSourceBounds>
	</sfw>
</metadata>
<g>
	<g>
		<g>
			<g>
				<path class="st0" d="M131.4,151.5L113.7,122c0,0-0.6-0.7-0.6-1.8l0-0.7v-1.5V65.5h-6.7v54.8v1.7c0.6,0.6,11.7,19.6,11.7,19.6
					H90.5c0,0,11.2-19,11.7-19.6v-1.7V65.5h-6.7v52.6v1.5l0,0.7c0,1.1-0.6,1.8-0.6,1.8l-17.7,29.5H131.4z"/>
			</g>
			<g>
				<path class="st0" d="M125.9,27.1c0,0,3.3-13.8-8.6-22.9c0,0-4.8-4.3-13.8-4.3c-8.1,0-12.9,4.3-12.9,4.3
					c-11,7.6-8.1,22.9-8.1,22.9H125.9z"/>
				<path class="st0" d="M83.9,30.9h40.7c0.3-0.8,0.6-1.6,0.8-2.4H83.1C83.3,29.4,83.6,30.2,83.9,30.9z"/>
				<path class="st0" d="M124,32.4H84.6c0.4,0.8,0.9,1.6,1.4,2.4h36.7C123.1,34,123.6,33.2,124,32.4z"/>
				<path class="st0" d="M88.6,38.1H120c0.6-0.6,1.1-1.2,1.7-1.9H86.9C87.5,36.8,88,37.5,88.6,38.1z"/>
				<path class="st0" d="M92,40.9h24.6c0.6-0.4,1.3-0.9,1.9-1.4H90.1C90.7,40,91.3,40.5,92,40.9z"/>
				<path class="st0" d="M95.4,42.8c2.7,1.2,5.7,1.9,8.9,1.9c3.2,0,6.2-0.7,8.9-1.9H95.4z"/>
			</g>
			<path class="st1" d="M146.5,45.8h-33.3c0,0-3.1,0-5.6,1.7c-1.9,1.3-3.3,4.3-3.3,4.5h0c-0.1-0.1-1.4-3.2-3.3-4.5
				c-2.5-1.7-5.6-1.7-5.6-1.7H62.1l-6.7,10.7h30.5c0,0,0.9,0,1.5,0.1c0.9,0.2,2.5,0.6,4.1,1.8c2.3,1.6,2.9,2.5,3.4,3
				c0.3,0.3,1,1.2,1,1.2h7.5h0.8h0h2.6h5.7c0,0,0.7-1,1-1.2c0.6-0.6,1.2-1.4,3.4-3c1.6-1.2,3.2-1.7,4.1-1.8c0.6-0.1,1.5-0.1,1.5-0.1
				h30.5L146.5,45.8z"/>
			<g>
				<g>
					<path class="st1" d="M58.8,59.7v50c0,0,0,0.5,0,0.7c0,0.6,0,1,0.1,1.5c0.5,5.4,2.2,9.3,5.3,14.5c4.9,8.2,13.8,13.9,13.8,13.9
						l4.2-6.7c0,0-5.7-3-10.2-10c-0.9-1.4-1.8-2.7-2.4-4c-0.6-1.2-1-2.2-1.4-3.3c-0.3-0.8-0.5-1.5-0.6-2.1c-0.2-0.9-0.3-1.6-0.4-2.5
						c0-0.3-0.1-1.6-0.1-1.6V110V59.7H58.8z"/>
					<path class="st1" d="M71.5,59.7v50.5c0,0,0,0.2,0,0.4c0,0.3,0,0.6,0.1,0.9c0,0.2,0.1,0.4,0.1,0.5c0.2,0.8,0.3,1.5,0.7,2.5
						c0.6,1.7,1.6,3.8,3,6.1c3.7,6.1,9.2,8.8,9.2,8.8l4.2-6.5c0,0-1.4-0.8-3.1-2.4c-1.1-1.1-2.4-2.5-3.6-4.2
						c-1.1-1.7-1.8-3.4-2.2-4.8c-0.3-1.1-0.4-2-0.4-2.5c0-0.5,0-0.7,0-0.7V59.7H71.5z"/>
				</g>
				<g>
					<path class="st1" d="M149.8,59.7v50c0,0,0,0.5,0,0.7c0,0.6,0,1-0.1,1.5c-0.5,5.4-2.2,9.3-5.3,14.5
						c-4.9,8.2-13.8,13.9-13.8,13.9l-4.2-6.7c0,0,5.7-3,10.2-10c0.9-1.4,1.8-2.7,2.4-4c0.6-1.2,1-2.2,1.4-3.3
						c0.3-0.8,0.5-1.5,0.6-2.1c0.2-0.9,0.3-1.6,0.4-2.5c0-0.3,0.1-1.6,0.1-1.6V110V59.7H149.8z"/>
					<path class="st1" d="M137.1,59.7v50.5c0,0,0,0.2,0,0.4c0,0.3,0,0.6-0.1,0.9c0,0.2-0.1,0.4-0.1,0.5c-0.2,0.8-0.3,1.5-0.7,2.5
						c-0.6,1.7-1.6,3.8-3,6.1c-3.7,6.1-9.2,8.8-9.2,8.8l-4.2-6.5c0,0,1.4-0.8,3.1-2.4c1.1-1.1,2.4-2.5,3.6-4.2
						c1.1-1.7,1.8-3.4,2.2-4.8c0.3-1.1,0.4-2,0.4-2.5c0-0.5,0-0.7,0-0.7V59.7H137.1z"/>
				</g>
			</g>
		</g>
	</g>
	<g>
		<path class="st1" d="M23.4,188.9v-15.7h4.9v39h-4.9v-18.7H4.9v18.7H0v-39h4.9v15.7H23.4z"/>
		<path class="st1" d="M72.2,173.2h6.4l-17.5,17.5l17.8,21.5h-6.6l-14.7-18.1l-2,1.9v16.3h-4.9v-39h4.9v16.9L72.2,173.2z"/>
		<path class="st1" d="M101.5,173.2v23c0,6.4,1.9,12.3,9.4,12.3c7.5,0,9.4-5.9,9.4-12.3v-23h4.9v24.7c0,8.6-5.3,15.1-14.3,15.1
			c-8.9,0-14.3-6.6-14.3-15.1v-24.7H101.5z"/>
		<path class="st1" d="M164.8,180.6c-1.4-2.4-3.3-3.7-6.3-3.7c-3.1,0-6.5,2.1-6.5,5.5c0,3.1,3,4.7,5.4,5.6l2.8,1.1
			c5.5,2.2,9.7,5.2,9.7,11.7c0,7.1-5.5,12.1-12.5,12.1c-6.3,0-11.2-4.7-12-10.9l4.9-1c-0.1,4.3,3.4,7.4,7.6,7.4
			c4.2,0,7.2-3.5,7.2-7.6c0-4.2-3.4-6-6.7-7.4l-2.7-1.1c-4.4-1.9-8.5-4.4-8.5-9.9c0-6.3,5.6-10.1,11.5-10.1c4.3,0,7.9,2.1,10,5.9
			L164.8,180.6z"/>
		<path class="st1" d="M201.2,212.2h-4.9v-34.5h-9.3v-4.5h23.4v4.5h-9.3V212.2z"/>
	</g>
</g>
</svg>
